<?xml version="1.0" standalone="no"?>
<!DOCTYPE svg PUBLIC "-//W3C//DTD SVG 20010904//EN"
 "http://www.w3.org/TR/2001/REC-SVG-20010904/DTD/svg10.dtd">
<svg version="1.0" xmlns="http://www.w3.org/2000/svg"
 width="512.000000pt" height="512.000000pt" viewBox="0 0 512.000000 512.000000"
 preserveAspectRatio="xMidYMid meet">

<g transform="translate(0.000000,512.000000) scale(0.100000,-0.100000)"
fill="#000000" stroke="none">
<path d="M677 5098 c-56 -33 -77 -85 -77 -191 l0 -87 -89 0 c-48 0 -112 -5
-142 -10 -181 -35 -330 -186 -359 -366 -6 -37 -10 -815 -10 -2039 0 -2157 -2
-2058 56 -2166 55 -101 167 -189 279 -220 76 -21 3196 -21 3270 0 161 47 288
190 315 357 6 34 10 376 10 812 l0 753 539 537 c538 535 540 537 580 622 92
190 92 362 2 545 -67 136 -194 247 -339 297 -97 33 -287 33 -384 0 -96 -33
-179 -91 -295 -205 l-103 -101 0 375 c0 206 -4 400 -10 433 -30 182 -176 331
-359 366 -30 5 -96 10 -147 10 l-94 0 0 91 c0 108 -20 154 -80 188 -47 26 -90
27 -140 1 -60 -31 -80 -78 -80 -190 l0 -90 -150 0 -150 0 0 90 c0 71 -4 99
-20 130 -23 45 -80 80 -130 80 -50 0 -107 -35 -130 -80 -16 -31 -20 -59 -20
-130 l0 -90 -150 0 -150 0 0 90 c0 112 -20 159 -80 190 -75 38 -157 14 -198
-58 -18 -33 -22 -55 -22 -131 l0 -91 -155 0 -155 0 0 90 c0 112 -20 159 -80
190 -50 26 -93 25 -140 -1 -60 -34 -80 -80 -80 -188 l0 -91 -155 0 -155 0 0
93 c0 110 -17 150 -76 184 -49 29 -98 29 -147 1z m-77 -665 c0 -112 22 -162
84 -192 54 -27 91 -26 140 2 59 34 76 74 76 184 l0 93 155 0 155 0 0 -91 c0
-108 20 -154 80 -188 48 -27 92 -27 142 1 60 34 78 78 78 188 l0 90 155 0 155
0 0 -91 c0 -108 20 -154 80 -188 48 -27 92 -27 140 0 60 34 80 80 80 188 l0
91 150 0 150 0 0 -91 c0 -74 4 -98 21 -129 25 -44 83 -80 129 -80 46 0 104 36
129 80 17 31 21 55 21 129 l0 91 150 0 150 0 0 -90 c0 -110 18 -154 78 -188
50 -28 94 -28 142 -1 60 34 80 80 80 188 l0 91 98 0 c118 0 155 -16 189 -80
l23 -43 0 -531 0 -531 -163 -163 -162 -162 -1295 0 c-1466 0 -1342 7 -1388
-81 -38 -72 -19 -140 52 -193 27 -21 34 -21 1179 -24 l1151 -2 -149 -150 -150
-150 -995 0 c-950 0 -997 -1 -1030 -19 -100 -53 -103 -183 -6 -255 27 -21 37
-21 874 -24 l846 -2 -149 -150 -150 -150 -690 0 c-777 0 -736 4 -783 -76 -40
-68 -19 -145 52 -198 27 -21 39 -21 657 -24 346 -1 629 -6 629 -9 0 -4 -21
-72 -47 -150 l-47 -143 -576 0 c-648 0 -621 3 -668 -76 -40 -68 -19 -145 52
-198 27 -21 40 -21 557 -24 291 -1 529 -5 529 -8 0 -3 -12 -44 -26 -90 -31
-99 -27 -138 16 -188 31 -35 93 -58 133 -49 41 9 962 316 992 330 17 8 193
178 393 376 l362 362 0 -615 0 -615 -23 -39 c-12 -21 -38 -47 -57 -58 -34 -18
-90 -18 -1592 -16 -1554 3 -1557 3 -1584 24 -15 11 -37 33 -48 48 l-21 27 -3
1996 c-2 1978 -2 1997 18 2038 31 65 75 84 188 85 l92 0 0 -87z m4050 -791
c107 -56 164 -148 164 -267 0 -113 -20 -147 -199 -325 l-155 -155 -210 210
-210 210 158 158 c183 184 209 199 332 194 55 -1 87 -8 120 -25z m-608 -749
l208 -208 -697 -697 -698 -698 -212 212 -213 213 692 692 c381 381 697 693
703 693 5 0 103 -93 217 -207z m-1694 -1849 c-134 -45 -244 -80 -245 -79 -2 1
34 111 78 244 l81 243 164 -163 164 -164 -242 -81z"/>
<path d="M679 3590 c-39 -21 -79 -86 -79 -130 0 -48 39 -108 84 -129 42 -21
51 -21 1267 -21 1145 0 1226 1 1259 18 107 53 107 211 0 264 -33 17 -113 18
-1265 18 -1195 -1 -1231 -1 -1266 -20z"/>
</g>
</svg>
